<svg width="30" height="47" viewBox="0 0 30 47" fill="none" xmlns="http://www.w3.org/2000/svg">
<path fill-rule="evenodd" clip-rule="evenodd" d="M4.22603 4.76612C4.04817 3.91353 4.60075 3.07511 5.45892 2.89788C6.31814 2.72275 7.161 3.27016 7.33939 4.12327L11.0064 21.6553C11.1251 22.2221 11.683 22.587 12.2546 22.4685C12.4061 22.4376 12.5412 22.3741 12.6583 22.2892C13.0009 22.1518 13.2632 21.8424 13.3133 21.4523L15.6049 3.47885C15.6582 3.06042 15.872 2.68761 16.2076 2.42911C16.5438 2.17061 16.9603 2.05683 17.3814 2.11084C17.8026 2.16379 18.1778 2.37668 18.438 2.71016C18.6982 3.04312 18.8122 3.45735 18.7589 3.87578L16.4942 21.6406C16.442 22.0496 16.6367 22.4302 16.9608 22.6436C17.1592 22.8885 17.4532 23.0411 17.7725 23.0411C18.3546 23.0411 18.8281 22.5708 18.8281 21.9924V20.6815C18.8281 19.6696 19.6572 18.8463 20.6753 18.8463C21.6939 18.8463 22.5225 19.6696 22.5225 20.6815V24.0898C22.5225 24.6681 22.9964 25.1385 23.5781 25.1385C24.1602 25.1385 24.6336 24.6681 24.6336 24.0898V22.1786C24.8083 22.1015 25.2553 21.9924 25.5198 21.9924C26.2729 21.9924 26.9331 22.6048 26.9331 23.3033C26.9331 28.1723 26.5326 36.6929 25.4585 38.827C23.8858 41.9526 22.1261 44.5397 16.4969 44.5397C11.3394 44.5397 6.86861 42.0994 3.90831 37.6677C2.01781 34.8378 1.15911 29.0228 4.11678 26.3523C4.41709 26.0812 5.03353 25.7126 5.13856 25.6502L5.87375 30.695C5.95028 31.2172 6.40153 31.5937 6.91717 31.5937C6.96731 31.5937 7.0185 31.59 7.0697 31.5832C7.64656 31.4998 8.04661 30.9681 7.96322 30.395L4.23711 4.82904L4.22603 4.76612ZM25.4854 19.8945C25.2849 19.8945 24.9292 19.9344 24.5096 20.0408C24.1982 18.1705 22.541 16.7484 20.6035 16.7484C20.1253 16.7484 19.6556 16.8444 19.2128 17.0106L20.8531 4.13953C20.9777 3.16529 20.7122 2.20102 20.1063 1.42499C19.501 0.648439 18.6275 0.153458 17.6469 0.0302366C16.6658 -0.0945574 15.6957 0.169712 14.9141 0.771659C14.1329 1.37308 13.6342 2.2414 13.5102 3.21563L11.9179 15.7045L9.40617 3.69645C8.99134 1.71181 7.028 0.431886 5.02984 0.844545C3.04328 1.25458 1.75867 3.18522 2.15239 5.15885L4.7955 23.2965C3.92309 23.7752 2.90131 24.4967 2.84642 24.536C-0.285942 26.775 -1.28397 33.6486 2.17561 38.826C5.53967 43.8628 10.6301 46.6366 16.509 46.6366C23.3258 46.6366 25.6042 43.2415 27.3538 39.764C29.0289 36.436 29.0479 23.8376 29.0479 23.3033C29.0479 21.456 27.4166 19.895 25.4854 19.8945Z" fill="white"/>
</svg>
