<?xml version="1.0" encoding="UTF-8"?>
<svg width="155px" height="512px" viewBox="0 0 155 512" version="1.1" xmlns="http://www.w3.org/2000/svg" xmlns:xlink="http://www.w3.org/1999/xlink">
    <title>male hand</title>
    <defs>
        <polygon id="path-1" points="0.174475543 0.144836212 84.9916495 0.144836212 84.9916495 350.008338 0.174475543 350.008338"></polygon>
        <polygon id="path-3" points="0.23693395 0.200009053 90.0594511 0.200009053 90.0594511 372.521739 0.23693395 372.521739"></polygon>
        <polygon id="path-5" points="0.0888070652 0.112651962 24.2558967 0.112651962 24.2558967 67.219478 0.0888070652 67.219478"></polygon>
    </defs>
    <g id="Game-UI" stroke="none" stroke-width="1" fill="none" fill-rule="evenodd">
        <g id="Round-2" transform="translate(-26.000000, -199.000000)">
            <g id="male-hand" transform="translate(103.256278, 455.042482) rotate(-5.000000) translate(-103.256278, -455.042482) translate(48.256278, 203.042482)">
                <path d="M12.1617853,170.391233 L12.6038777,171.059431 C17.8058614,177.694581 27.3800462,178.837661 33.9863234,173.61125 C40.5928995,168.38664 41.7275734,158.772217 36.5276821,152.139169 L23.2741766,135.239109 L33.5080625,113.973852 C37.1679538,106.372427 33.9955897,97.228384 26.4241223,93.5535967 C18.8514592,89.8794096 9.7480625,93.0631047 6.09026359,100.666631 C-3.81601359,123.433983 -1.5293288,149.696015 12.1617853,170.391233" id="Fill-1" fill="#EA9975"></path>
                <path d="M56.3602038,198.864562 C84.5787908,199.70086 108.130448,177.40809 108.96322,149.06672 L109.722459,134.125327 C110.551644,105.783957 88.3543614,82.1349799 60.1324864,81.3007833 C31.9136005,80.4647857 8.36313859,102.756955 7.53066576,131.098625 L6.77351902,146.037617 C5.94074728,174.381388 28.1428125,198.030665 56.3602038,198.864562" id="Fill-3" fill="#FBC399"></path>
                <g id="Group-7" transform="translate(17.635870, 153.412317)">
                    <mask id="mask-2" fill="white">
                        <use xlink:href="#path-1"></use>
                    </mask>
                    <g id="Clip-6"></g>
                    <path d="M16.0168668,30.7270399 L0.174475543,319.425985 C0.174475543,336.314937 29.6502908,350.008488 46.4689321,350.008488 C63.2875734,350.008488 84.9916495,336.314937 84.9916495,319.425985 L76.9209973,30.7270399 C76.9209973,13.8359857 63.2875734,0.144836212 46.4689321,0.144836212 C29.6502908,0.144836212 16.0168668,13.8359857 16.0168668,30.7270399" id="Fill-5" fill="#FBC399" mask="url(#mask-2)"></path>
                </g>
                <g id="Group-10" transform="translate(6.277174, 130.898916)">
                    <mask id="mask-4" fill="white">
                        <use xlink:href="#path-3"></use>
                    </mask>
                    <g id="Clip-9"></g>
                    <path d="M31.0979565,56.8212122 C35.1655652,59.1004689 36.919288,64.1083497 36.6550489,68.7785296 L22.8165707,332.820197 C22.8165707,349.70885 60.363337,363.4 77.1819783,363.4 C81.7912174,363.4 86.1436902,362.343671 90.0594511,360.502975 C84.4930924,367.797317 67.6855109,372.521829 57.8276576,372.521829 C41.0090163,372.521829 11.5332011,358.828278 11.5332011,341.939325 L27.0841522,67.0089763 C27.256625,63.9618625 25.7898587,61.0693408 23.2616522,59.3760329 C9.09108152,49.8840829 -3.48269565,33.6876422 1.25328261,0.200009053 C1.25328261,0.200009053 -3.74573913,37.2987917 31.0979565,56.8212122" id="Fill-8" fill="#EA9975" mask="url(#mask-4)"></path>
                </g>
                <path d="M20.5329647,117.58341 C21.3214973,124.192144 27.2886984,128.916356 33.8773397,128.142195 C40.4743505,127.364432 45.1962799,121.36296 44.4229918,114.738917 L39.4045408,71.7551314 C39.4033451,71.7458258 32.7552201,16.0203559 32.7543234,16.0110504 C31.9654918,9.40021537 25.9982908,4.67570316 19.4108451,5.45016415 C12.8126386,6.2279271 8.09190489,12.2290992 8.86489402,18.8534423 L20.5290788,117.551891 C20.5302745,117.560597 20.531769,117.572003 20.5329647,117.58341" id="Fill-11" fill="#FBC399"></path>
                <path d="M13.4337799,18.3036951 C13.4337799,18.3036951 21.3214973,124.192024 20.5329647,117.58329 C20.531769,117.571883 20.5302745,117.560777 20.5290788,117.551771 L8.86489402,18.8533222 C8.09190489,12.2289792 12.8126386,6.22780703 19.4108451,5.45004407 C20.1796495,5.35969029 20.9397853,5.35068493 21.6846766,5.40531745 C16.3257636,7.13704824 12.7534538,12.4760262 13.4337799,18.3036951" id="Fill-13" fill="#EA9975"></path>
                <path d="M64.7269891,78.8741389 L64.7269891,78.9056577 L64.8378859,121.854623 C64.8561196,128.526394 70.255087,133.918804 76.8975326,133.902929 C83.5301141,133.884583 88.8941087,128.478665 88.8941087,121.824905 L88.8941087,121.790985 L88.783212,78.8444212 C88.7649783,72.1726499 83.3660109,66.7781389 76.7235652,66.7961046 C70.0909837,66.8141603 64.7269891,72.2182771 64.7269891,78.8741389" id="Fill-15" fill="#FBC399"></path>
                <path d="M71.8401929,78.924689 C71.8372038,78.9354954 71.8401929,78.9132822 71.8401929,78.924689 C71.8401929,78.924689 67.2868505,103.016729 66.4083451,112.125051 L64.7269592,112.74492 L64.7269592,78.9057777 L64.7269592,78.874259 C64.7269592,72.218097 70.0909538,66.7962697 76.7235353,66.7962697 C80.0731549,66.7962697 80.7699212,67.6376705 81.4938886,67.7718504 C75.8934538,68.8056658 73.4133723,73.0769082 71.8401929,78.924689" id="Fill-17" fill="#EA9975"></path>
                <path d="M42.4232337,110.251456 C41.9174728,116.887806 46.856413,122.687258 53.4692663,123.213772 C60.091087,123.738784 65.8843207,118.773529 66.4083152,112.124871 L69.8057609,68.9810902 C69.8063587,68.9720848 74.0718478,13.011575 74.0724457,13.0025696 C74.5785054,6.36381799 69.6395652,0.564666111 63.0282065,0.0381527099 C56.4048913,-0.487159976 50.6128533,4.47809553 50.0888587,11.1270532 L42.425625,110.219637 C42.4250272,110.228642 42.4241304,110.240049 42.4232337,110.251456" id="Fill-19" fill="#FBC399"></path>
                <g id="Group-23" transform="translate(85.489130, 72.964431)">
                    <mask id="mask-6" fill="white">
                        <use xlink:href="#path-5"></use>
                    </mask>
                    <g id="Clip-22"></g>
                    <path d="M0.0888070652,12.1927776 L0.0888070652,12.2245965 L0.199703804,55.17116 C0.2179375,61.8429313 5.61690489,67.2377425 12.2593505,67.219478 C18.8919321,67.2011207 24.2559266,61.7973041 24.2559266,55.1414423 L24.2559266,55.1096233 L24.1450299,12.1609587 C24.1267962,5.48918737 18.7278288,0.0967776057 12.0853832,0.112651962 C5.45280163,0.130697796 0.0888070652,5.53691578 0.0888070652,12.1927776" id="Fill-21" fill="#FBC399" mask="url(#mask-6)"></path>
                </g>
                <path d="M89.9610489,85.1572088 L89.9610489,85.1890278 C89.9610489,85.1890278 85.7069185,122.800215 85.6889837,116.128444 L85.577788,85.1890278 L85.577788,85.1572088 C85.577788,78.501347 90.9420815,73.095129 97.5743641,73.0770765 C98.3368913,73.075017 99.080288,73.152163 99.8042554,73.2884441 C94.2038207,74.3222594 89.9610489,79.2397865 89.9610489,85.1572088" id="Fill-24" fill="#EA9975"></path>
                <path d="M54.6769049,11.4797632 C54.6769049,11.4797632 44.5051929,83.3293308 44.5060897,83.3203254 L50.0888886,11.1270532 C50.6128832,4.47809553 56.4049212,-0.487159976 63.0279375,0.0381527099 C63.799731,0.0996893389 64.5470136,0.239272424 65.2670951,0.437990709 C59.6753288,1.09087933 55.1375299,5.63078166 54.6769049,11.4797632" id="Fill-26" fill="#EA9975"></path>
                <path d="M25.5759565,8.93733985 L27.2609293,20.4512934 C27.4519348,21.7129444 27.2815543,23.0028122 26.7695163,24.1708074 C25.0435924,28.1082511 20.1300598,29.4272362 16.6776141,26.87992 L16.0322609,26.4035364" id="Stroke-28" stroke="#EA9975" stroke-width="1.8" stroke-linecap="round"></path>
                <path d="M69.5450788,6.28922359 L69.0180951,17.9148436 C68.9663832,19.1897024 68.5547799,20.4234368 67.8308125,21.4722611 C65.3904864,25.0080658 60.3167364,25.3640777 57.410106,22.2037965 L56.8666821,21.6127447" id="Stroke-30" stroke="#EA9975" stroke-width="1.8" stroke-linecap="round"></path>
                <line x1="74.9956984" y1="199.975583" x2="79.3484701" y2="206.667466" id="Stroke-32" stroke="#EA9975" stroke-width="1.8" stroke-linecap="round"></line>
                <line x1="54.4162527" y1="189.599157" x2="53.0014973" y2="197.464739" id="Stroke-34" stroke="#EA9975" stroke-width="1.8" stroke-linecap="round"></line>
                <line x1="62.8230326" y1="210.829504" x2="63.9062935" y2="218.747917" id="Stroke-36" stroke="#EA9975" stroke-width="1.8" stroke-linecap="round"></line>
                <line x1="84.9116603" y1="188.066895" x2="85.9949212" y2="195.985308" id="Stroke-38" stroke="#EA9975" stroke-width="1.8" stroke-linecap="round"></line>
                <line x1="76.1669891" y1="263.855017" x2="77.25025" y2="271.77373" id="Stroke-40" stroke="#EA9975" stroke-width="1.8" stroke-linecap="round"></line>
                <line x1="68.1627255" y1="335.465492" x2="69.2459864" y2="343.383905" id="Stroke-42" stroke="#EA9975" stroke-width="1.8" stroke-linecap="round"></line>
                <line x1="79.1934837" y1="291.186225" x2="81.4987011" y2="298.836579" id="Stroke-44" stroke="#EA9975" stroke-width="1.8" stroke-linecap="round"></line>
                <line x1="89.9768315" y1="277.41844" x2="91.0600924" y2="285.336853" id="Stroke-46" stroke="#EA9975" stroke-width="1.8" stroke-linecap="round"></line>
                <line x1="70.1234755" y1="238.05517" x2="68.4337201" y2="245.865819" id="Stroke-48" stroke="#EA9975" stroke-width="1.8" stroke-linecap="round"></line>
                <line x1="63.8648342" y1="279.001132" x2="62.1750788" y2="286.812081" id="Stroke-50" stroke="#EA9975" stroke-width="1.8" stroke-linecap="round"></line>
                <line x1="54.7228777" y1="322.652215" x2="53.0331223" y2="330.462864" id="Stroke-52" stroke="#EA9975" stroke-width="1.8" stroke-linecap="round"></line>
                <line x1="68.3019891" y1="306.656834" x2="69.106663" y2="314.608567" id="Stroke-54" stroke="#EA9975" stroke-width="1.8" stroke-linecap="round"></line>
                <line x1="50.9282364" y1="220.310617" x2="46.4795136" y2="226.938262" id="Stroke-56" stroke="#EA9975" stroke-width="1.8" stroke-linecap="round"></line>
                <line x1="40.3629457" y1="209.07622" x2="35.9142228" y2="215.703865" id="Stroke-58" stroke="#EA9975" stroke-width="1.8" stroke-linecap="round"></line>
                <line x1="53.2652582" y1="258.651419" x2="50.206481" y2="266.030411" id="Stroke-60" stroke="#EA9975" stroke-width="1.8" stroke-linecap="round"></line>
                <line x1="47.8531386" y1="283.773193" x2="44.1654484" y2="290.856509" id="Stroke-62" stroke="#EA9975" stroke-width="1.8" stroke-linecap="round"></line>
                <line x1="54.4645571" y1="238.363843" x2="50.0158342" y2="244.991488" id="Stroke-64" stroke="#EA9975" stroke-width="1.8" stroke-linecap="round"></line>
                <line x1="50.7606957" y1="304.430138" x2="46.3119728" y2="311.057783" id="Stroke-66" stroke="#EA9975" stroke-width="1.8" stroke-linecap="round"></line>
                <line x1="34.2104185" y1="309.226844" x2="29.7616957" y2="315.854489" id="Stroke-68" stroke="#EA9975" stroke-width="1.8" stroke-linecap="round"></line>
                <line x1="38.4246739" y1="239.495397" x2="31.7496467" y2="243.848888" id="Stroke-70" stroke="#EA9975" stroke-width="1.8" stroke-linecap="round"></line>
                <line x1="82.1069891" y1="223.367247" x2="85.847288" y2="230.422646" id="Stroke-72" stroke="#EA9975" stroke-width="1.8" stroke-linecap="round"></line>
                <line x1="84.1358913" y1="249.637564" x2="87.8761902" y2="256.692963" id="Stroke-74" stroke="#EA9975" stroke-width="1.8" stroke-linecap="round"></line>
                <line x1="87.0360054" y1="311.080957" x2="90.7763043" y2="318.136357" id="Stroke-76" stroke="#EA9975" stroke-width="1.8" stroke-linecap="round"></line>
                <line x1="85.6999538" y1="330.462714" x2="90.0524266" y2="337.154597" id="Stroke-78" stroke="#EA9975" stroke-width="1.8" stroke-linecap="round"></line>
                <line x1="85.3055679" y1="345.104349" x2="86.3888288" y2="353.022763" id="Stroke-80" stroke="#EA9975" stroke-width="1.8" stroke-linecap="round"></line>
                <line x1="41.1569484" y1="410.210283" x2="42.2402092" y2="418.128996" id="Stroke-82" stroke="#EA9975" stroke-width="1.8" stroke-linecap="round"></line>
                <line x1="85.8796005" y1="406.251106" x2="86.9628614" y2="414.169519" id="Stroke-84" stroke="#EA9975" stroke-width="1.8" stroke-linecap="round"></line>
                <line x1="79.8820897" y1="477.861581" x2="80.9653505" y2="485.779995" id="Stroke-86" stroke="#EA9975" stroke-width="1.8" stroke-linecap="round"></line>
                <line x1="88.9060951" y1="433.582285" x2="91.2113125" y2="441.232338" id="Stroke-88" stroke="#EA9975" stroke-width="1.8" stroke-linecap="round"></line>
                <line x1="99.6892935" y1="419.814229" x2="100.772554" y2="427.732943" id="Stroke-90" stroke="#EA9975" stroke-width="1.8" stroke-linecap="round"></line>
                <line x1="75.2314212" y1="362.135977" x2="77.1026168" y2="369.904901" id="Stroke-92" stroke="#EA9975" stroke-width="1.8" stroke-linecap="round"></line>
                <line x1="73.5774755" y1="421.397222" x2="71.8877201" y2="429.207871" id="Stroke-94" stroke="#EA9975" stroke-width="1.8" stroke-linecap="round"></line>
                <line x1="61.3472989" y1="468.953539" x2="59.6575435" y2="476.764188" id="Stroke-96" stroke="#EA9975" stroke-width="1.8" stroke-linecap="round"></line>
                <line x1="78.0146005" y1="449.052623" x2="78.8192745" y2="457.004657" id="Stroke-98" stroke="#EA9975" stroke-width="1.8" stroke-linecap="round"></line>
                <line x1="59.3456875" y1="362.134506" x2="57.4873451" y2="369.906432" id="Stroke-100" stroke="#EA9975" stroke-width="1.8" stroke-linecap="round"></line>
                <line x1="50.075587" y1="345.749553" x2="45.6268641" y2="352.377499" id="Stroke-102" stroke="#EA9975" stroke-width="1.8" stroke-linecap="round"></line>
                <line x1="62.9778696" y1="401.047509" x2="59.9190924" y2="408.426501" id="Stroke-104" stroke="#EA9975" stroke-width="1.8" stroke-linecap="round"></line>
                <line x1="57.5657799" y1="426.169282" x2="53.8780897" y2="433.252598" id="Stroke-106" stroke="#EA9975" stroke-width="1.8" stroke-linecap="round"></line>
                <line x1="77.2201793" y1="384.073635" x2="72.7714565" y2="390.70128" id="Stroke-108" stroke="#EA9975" stroke-width="1.8" stroke-linecap="round"></line>
                <line x1="60.4733071" y1="446.825928" x2="56.0245842" y2="453.453573" id="Stroke-110" stroke="#EA9975" stroke-width="1.8" stroke-linecap="round"></line>
                <line x1="43.9230598" y1="451.622633" x2="39.474337" y2="458.250278" id="Stroke-112" stroke="#EA9975" stroke-width="1.8" stroke-linecap="round"></line>
                <line x1="48.1373152" y1="381.891486" x2="41.462288" y2="386.244978" id="Stroke-114" stroke="#EA9975" stroke-width="1.8" stroke-linecap="round"></line>
                <line x1="91.8196304" y1="365.763036" x2="95.5599293" y2="372.818436" id="Stroke-116" stroke="#EA9975" stroke-width="1.8" stroke-linecap="round"></line>
                <line x1="93.8485326" y1="392.033653" x2="97.5888315" y2="399.089053" id="Stroke-118" stroke="#EA9975" stroke-width="1.8" stroke-linecap="round"></line>
                <line x1="93.2958125" y1="459.089578" x2="97.0361114" y2="466.144977" id="Stroke-120" stroke="#EA9975" stroke-width="1.8" stroke-linecap="round"></line>
                <text id="scissors" transform="translate(81.667317, 234.078446) rotate(83.000000) translate(-81.667317, -234.078446) " font-family=".AppleSystemUIFont" font-size="24" font-weight="normal" fill="#EA9975">
                    <tspan x="19.6673172" y="243.078446">SCISSORS</tspan>
                </text>
            </g>
        </g>
    </g>
</svg>