<svg width="28" height="46" viewBox="0 0 28 46" fill="none" xmlns="http://www.w3.org/2000/svg">
<path fill-rule="evenodd" clip-rule="evenodd" d="M16.4941 0.985331C17.1972 1.66369 17.658 2.72234 17.658 3.94131V4.5146C18.1426 4.29025 18.6546 4.19212 19.1711 4.19212C20.0577 4.19212 20.9603 4.4963 21.6651 5.17744C22.3699 5.8586 22.829 6.9278 22.829 8.15134V10.4982C23.3137 10.2736 23.8421 10.1757 24.3587 10.1757C25.2426 10.1757 26.133 10.4827 26.8361 11.1611C27.5393 11.8394 28 12.8981 28 14.1171V30.4556C28 35.4174 26.2543 39.282 23.6104 41.8316C20.9667 44.3813 17.4714 45.6296 14 45.6296C10.5287 45.6296 7.05005 44.3813 4.4062 41.8316C1.76238 39.282 0 35.4174 0 30.4556V20.3694C0 19.1494 0.475356 18.0913 1.18056 17.4134C1.88574 16.7356 2.77261 16.4281 3.65795 16.4281C4.17545 16.4281 4.70214 16.5262 5.18766 16.7506V8.13343C5.18766 6.91446 5.64841 5.8558 6.35161 5.17744C7.05471 4.49909 7.96174 4.1742 8.84563 4.1742C9.36355 4.1742 9.87298 4.28869 10.3587 4.5146V3.94131C10.3587 2.72234 10.8194 1.66369 11.5226 0.985331C12.2257 0.306953 13.1161 0 14 0C14.9114 0.021 15.9132 0.439823 16.4941 0.985331ZM14 2.29312C13.5925 2.29312 13.2013 2.43122 12.9359 2.68725C12.6705 2.94329 12.487 3.29147 12.487 3.94131V22.2326C12.4949 22.8383 11.9851 23.3955 11.4228 23.3955C10.8606 23.3955 10.3508 22.8383 10.3587 22.2326V8.223C10.397 7.67393 10.132 7.23763 9.90972 6.87938C9.6444 6.62334 9.25313 6.46732 8.84563 6.46732C8.43814 6.46732 8.03027 6.62334 7.76488 6.87938C7.49948 7.13541 7.31592 7.48359 7.31592 8.13343C7.31592 15.473 7.31592 22.7974 7.31592 30.1331C7.32389 30.7389 6.81403 31.296 6.25177 31.296C5.68955 31.296 5.17972 30.7389 5.18766 30.1331V20.4769C5.22861 19.9275 4.96397 19.4887 4.73876 19.1333C4.47186 18.8767 4.06873 18.7212 3.65795 18.7212C3.24725 18.7212 2.86076 18.8767 2.59384 19.1333C2.32694 19.3898 2.12827 19.7206 2.12827 20.3694V30.4556C2.12827 34.848 3.61349 38.0023 5.81953 40.1297C8.02555 42.2571 11.0049 43.3365 14 43.3365C16.9952 43.3365 19.9745 42.2571 22.1806 40.1297C24.3865 38.0023 25.8717 34.848 25.8717 30.4556V14.1171C25.8717 13.4672 25.6882 13.137 25.4228 12.8809C25.1574 12.6249 24.7662 12.4689 24.3587 12.4689C23.9512 12.4689 23.56 12.6249 23.2946 12.8809C22.8693 13.3184 22.834 13.7099 22.829 14.2425V24.2928C22.837 24.8985 22.3271 25.4557 21.7649 25.4557C21.2026 25.4557 20.6928 24.8985 20.7007 24.2928C20.7007 18.9076 20.7007 13.5321 20.7007 8.15134C20.7007 7.49592 20.5191 7.1377 20.2518 6.87938C19.9845 6.62105 19.5805 6.46732 19.1711 6.46732C18.7616 6.46732 18.3742 6.62105 18.1069 6.87938C17.8396 7.1377 17.658 7.49592 17.658 8.15134V22.4117C17.666 23.0175 17.1561 23.5746 16.5939 23.5746C16.0316 23.5746 15.5218 23.0175 15.5297 22.4117C15.5244 16.2499 15.5297 10.0911 15.5297 3.94131C15.5297 3.29147 15.3296 2.94329 15.0642 2.68725C14.7988 2.43122 14.4075 2.29312 14 2.29312Z" fill="white"/>
</svg>
