<svg width="32" height="35" viewBox="0 0 32 35" fill="none" xmlns="http://www.w3.org/2000/svg">
<path d="M31.1587 9.475C31.1587 10.0484 31.1385 23.5572 29.3905 27.0849C27.5735 30.7526 25.2073 34.3333 18.1361 34.3333C11.996 34.3333 6.6784 31.3893 3.16265 26.0442C-0.27022 20.8262 0.724758 14.084 3.76457 11.2959C4.6834 10.4541 5.41801 9.99589 5.89395 9.75409L5.88779 7.49932C5.88779 5.04174 7.50764 3.25985 9.73948 3.25985C10.6186 3.25985 11.3935 3.53103 12.0088 4.01407C12.5772 2.04801 14.4966 1 16.3208 1C18.0067 1 19.4474 2.07964 19.9995 3.58979C20.6753 3.03104 21.5393 2.69489 22.4799 2.69489C24.5315 2.69489 26.2207 4.29373 26.3865 6.32195C26.8932 6.16093 27.3882 6.08466 27.6592 6.08466C29.5562 6.08522 31.1587 7.63774 31.1587 9.475ZM29.475 9.475C29.475 8.57219 28.6654 7.78011 27.6956 7.78011C27.3148 7.78011 26.4755 7.98576 26.4755 8.14395V10.3224C26.4755 10.7902 26.0992 11.1699 25.6356 11.1699C25.172 11.1699 24.7958 10.7902 24.7958 10.3224V6.65019C24.7958 5.40388 23.7913 4.39034 22.5561 4.39034C21.3209 4.39034 20.3164 5.40388 20.3164 6.65019V8.06259C20.3164 8.53038 19.9401 8.91004 19.4765 8.91004C19.0129 8.91004 18.6366 8.53038 18.6366 8.06259V4.9553C18.6366 3.70899 17.6321 2.69545 16.3969 2.69545C15.2715 2.69545 13.5973 3.37228 13.5973 5.23778V7.49763C13.5973 7.96542 13.1572 8.34507 12.6936 8.34507C12.23 8.34507 11.809 7.96542 11.809 7.49763C11.809 6.32477 11.2356 4.9553 9.68461 4.9553C8.18402 4.9553 7.43821 6.23212 7.43821 7.49763V17.6675C7.43821 18.3974 7.1924 18.7974 6.68903 18.7974C6.18567 18.7974 5.94602 18.3737 5.94602 17.6675L5.95442 11.7467C5.95442 11.7467 5.17333 12.21 4.80098 12.5518C1.52937 15.5517 2.48515 21.9923 4.53502 25.1086C7.72881 29.965 12.5637 32.6396 18.1226 32.6396C24.2487 32.6396 26.1698 29.7814 27.8809 26.3278C29.1861 23.694 29.475 13.2693 29.475 9.475Z" fill="white" stroke="white" stroke-width="0.5"/>
</svg>
