<?xml version="1.0" encoding="UTF-8"?>
<svg width="165px" height="452px" viewBox="0 0 165 452" version="1.1" xmlns="http://www.w3.org/2000/svg" xmlns:xlink="http://www.w3.org/1999/xlink">
    <title>male hand</title>
    <defs>
        <polygon id="path-1" points="0 0.151791908 40.1530056 0.151791908 40.1530056 85.4880619 0 85.4880619"></polygon>
        <polygon id="path-3" points="0.146230435 0.144283368 24.5318446 0.144283368 24.5318446 67.9554187 0.146230435 67.9554187"></polygon>
        <polygon id="path-5" points="0.146320924 0.144283368 14.7087367 0.144283368 14.7087367 56.4243218 0.146320924 56.4243218"></polygon>
    </defs>
    <g id="Game-UI" stroke="none" stroke-width="1" fill="none" fill-rule="evenodd">
        <g id="Round-1_1" transform="translate(-150.000000, -339.000000)">
            <g id="male-hand" transform="translate(232.500000, 565.280255) rotate(-7.000000) translate(-232.500000, -565.280255) translate(177.000000, 344.780255)">
                <g id="Group-3" transform="translate(0.000000, 27.021437)">
                    <mask id="mask-2" fill="white">
                        <use xlink:href="#path-1"></use>
                    </mask>
                    <g id="Clip-2"></g>
                    <path d="M12.2724375,78.9520097 L12.7185489,79.6239234 C17.9678234,86.2962745 27.6290462,87.4457119 34.2953804,82.1899337 C40.9617147,76.9365702 42.1070054,67.2686791 36.8595408,60.5984409 L23.4855489,43.6043957 L33.8124701,22.221178 C37.5059348,14.577178 34.3044293,5.3825846 26.6641304,1.68736078 C19.0229266,-2.00756119 9.83647011,1.19414107 6.14572011,8.83965031 L6.14572011,8.83995216 C-3.85091576,31.7339193 -1.5431413,58.1416996 12.2724375,78.9520097" id="Fill-1" fill="#EA9975" mask="url(#mask-2)"></path>
                </g>
                <path d="M56.8726598,134.605093 C85.3477793,135.446041 109.113543,113.029598 109.953885,84.5303125 L110.719725,69.5061277 C111.556749,41.0071441 89.1576734,17.2266493 60.6789342,16.3878136 C32.2038147,15.5468649 8.43925761,37.9633084 7.59891522,66.4625938 L6.83518696,81.4846657 C5.99484457,109.985762 28.3984451,133.766559 56.8726598,134.605093" id="Fill-4" fill="#FBC399"></path>
                <path d="M33.9586101,119.798027 L17.972197,410.102803 C17.972197,427.08568 47.7159742,440.855083 64.6875122,440.855083 C81.6590503,440.855083 103.560436,427.08568 103.560436,410.102803 L95.4164144,119.798027 C95.4164144,102.813038 81.6590503,89.045748 64.6875122,89.045748 C47.7159742,89.045748 33.9586101,102.813038 33.9586101,119.798027" id="Fill-6" fill="#FBC399"></path>
                <path d="M18.9850418,57.2927821 L18.2213136,72.3145522 C17.7022076,89.9382524 26.0760717,105.747242 39.2727049,115.451053 C43.0602783,118.235903 45.1469576,122.778716 44.8806179,127.474868 L29.3584141,400.932901 C29.3584141,417.915476 67.246213,431.682766 84.2177511,431.682766 C88.8688924,431.682766 93.2612348,430.620261 97.2125935,428.769328 C91.5953299,436.104538 74.6352538,440.855022 64.6874821,440.855022 C47.715944,440.855022 17.9721668,427.08562 17.9721668,410.102743 L33.6647918,133.643133 C33.838531,130.579376 32.3584304,127.670768 29.8072402,125.968043 C15.5081478,116.423306 6.29152826,99.9487411 6.8350663,81.4846959 L7.59879457,66.462624 C8.13901467,48.1226384 18.1802918,32.3148561 32.853406,23.5905419 C24.583906,32.4449526 19.3699223,44.2245727 18.9850418,57.2927821" id="Fill-8" fill="#EA9975"></path>
                <path d="M22.4729454,58.3074142 C22.4729454,65.000291 27.8857035,70.4341595 34.5785812,70.4523057 C41.2814128,70.4682684 46.7297633,65.04587 46.7478611,58.3369953 L46.8576546,17.1030425 L46.8576546,17.0713485 C46.8576546,10.3781698 41.4445948,4.9421883 34.7520188,4.92584327 C28.0500921,4.90777762 22.6008367,10.3304778 22.5827389,17.0390507 L22.4729454,58.2730035 L22.4729454,58.3074142 Z" id="Fill-10" fill="#FBC399"></path>
                <path d="M27.7374823,17.0391111 C27.7374823,17.0391111 22.4728247,65.0003513 22.4728247,58.3074745 L22.4728247,58.272762 L22.5826182,17.0391111 C22.6010177,10.3302363 28.0502731,4.90783799 34.7521997,4.92590363 C35.6278329,4.92836366 36.4805421,5.02676612 37.3024851,5.20485647 C31.8487052,6.38628973 27.7534687,11.2258195 27.7374823,17.0391111" id="Fill-12" fill="#EA9975"></path>
                <text id="rock" transform="translate(65.907743, 86.850607) rotate(2.000000) translate(-65.907743, -86.850607) " font-family=".AppleSystemUIFont" font-size="24" font-weight="normal" fill="#EA9975">
                    <tspan x="32.4077427" y="95.8506074">ROCK</tspan>
                </text>
                <g id="Group-16" transform="translate(43.133152, 0.156961)">
                    <mask id="mask-4" fill="white">
                        <use xlink:href="#path-3"></use>
                    </mask>
                    <g id="Clip-15"></g>
                    <path d="M0.146230435,55.8105271 C0.146230435,62.5034039 5.56019511,67.9372725 12.2542793,67.9554187 C18.9571109,67.9713813 24.4051598,62.5465682 24.4223527,55.8401082 L24.5318446,12.3211657 L24.5318446,12.2915846 C24.5318446,5.59659487 19.1178799,0.162424435 12.4253038,0.143976411 C5.72126576,0.128013758 0.274121739,5.5528269 0.256928804,12.2595887 L0.146230435,55.7785312 L0.146230435,55.8105271 Z" id="Fill-14" fill="#FBC399" mask="url(#mask-4)"></path>
                </g>
                <g id="Group-19" transform="translate(43.133152, 0.156961)">
                    <mask id="mask-6" fill="white">
                        <use xlink:href="#path-5"></use>
                    </mask>
                    <g id="Clip-18"></g>
                    <path d="M4.90031821,12.2595283 C4.90031821,12.2595283 0.146320924,62.5033435 0.146320924,55.8104667 L0.146320924,55.7784708 L0.257019293,12.2595283 C0.274212228,5.55276653 5.72135625,0.128255236 12.4253943,0.143917357 C13.2063155,0.146366119 13.9688372,0.228770637 14.7087367,0.372752156 C9.13249484,1.45819774 4.9150981,6.35960637 4.90031821,12.2595283" id="Fill-17" fill="#EA9975" mask="url(#mask-6)"></path>
                </g>
                <path d="M65.315356,13.947523 L65.315356,13.979217 L65.4272609,57.1670322 C65.4456603,63.875907 70.8937092,69.2983053 77.5968424,69.2823427 C84.2894185,69.2641965 89.7021766,63.8279131 89.7021766,57.1374511 L89.7021766,57.1030405 L89.5902717,13.91764 C89.5721739,7.2087653 84.1238234,1.784254 77.4209918,1.80231967 C70.7281141,1.82047577 65.315356,7.2546462 65.315356,13.947523" id="Fill-20" fill="#FBC399"></path>
                <path d="M69.7395204,13.947523 L69.7395204,13.979217 C69.7395204,13.979217 65.4458111,63.875907 65.4274117,57.1670322 L65.3155068,13.979217 L65.3155068,13.947523 C65.3155068,7.2546462 70.7282649,1.82047577 77.420841,1.80232282 C78.1906019,1.80025195 78.9404552,1.8778269 79.6713057,2.01275298 C74.0199579,3.05231766 69.7395204,7.99960719 69.7395204,13.947523" id="Fill-22" fill="#EA9975"></path>
                <path d="M86.3558283,20.2657158 L86.3558283,20.2974099 L86.4677332,63.4831121 C86.4861326,70.191685 91.9341815,75.6164982 98.6373147,75.5981322 C105.329891,75.5799745 110.742649,70.146106 110.742649,63.4532292 L110.742649,63.4212333 L110.630744,20.2337199 C110.612646,13.5248452 105.164296,8.10244682 98.4614641,8.11840946 C91.7685864,8.13655565 86.3558283,13.5725372 86.3558283,20.2657158" id="Fill-24" fill="#FBC399"></path>
                <path d="M90.7788163,20.2657158 L90.7788163,20.2974099 C90.7788163,20.2974099 86.486012,70.191685 86.4679141,63.4831121 L86.3557076,20.2974099 L86.3557076,20.2657158 C86.3557076,13.5725372 91.7687674,8.13655565 98.4613435,8.11839022 C99.2308027,8.11602998 99.9809576,8.19390678 100.711808,8.33094579 C95.0601587,9.37051047 90.7788163,14.3153852 90.7788163,20.2657158" id="Fill-26" fill="#EA9975"></path>
                <line x1="75.483891" y1="135.890301" x2="79.8762334" y2="142.6194" id="Stroke-28" stroke="#EA9975" stroke-width="1.81125" stroke-linecap="round"></line>
                <line x1="54.7173595" y1="125.456229" x2="53.2897427" y2="133.365554" id="Stroke-30" stroke="#EA9975" stroke-width="1.81125" stroke-linecap="round"></line>
                <line x1="63.2005647" y1="146.804584" x2="64.2936734" y2="154.767033" id="Stroke-32" stroke="#EA9975" stroke-width="1.81125" stroke-linecap="round"></line>
                <line x1="85.4899679" y1="123.915144" x2="86.5830766" y2="131.877896" id="Stroke-34" stroke="#EA9975" stroke-width="1.81125" stroke-linecap="round"></line>
                <line x1="76.6658299" y1="200.124985" x2="77.7589386" y2="208.087435" id="Stroke-36" stroke="#EA9975" stroke-width="1.81125" stroke-linecap="round"></line>
                <line x1="79.8614791" y1="325.850468" x2="80.9545878" y2="333.812917" id="Stroke-36-Copy" stroke="#EA9975" stroke-width="1.81125" stroke-linecap="round"></line>
                <line x1="70.6136152" y1="272.133433" x2="71.7067239" y2="280.096185" id="Stroke-38" stroke="#EA9975" stroke-width="1.81125" stroke-linecap="round"></line>
                <line x1="79.719838" y1="227.60819" x2="82.046012" y2="235.300787" id="Stroke-40" stroke="#EA9975" stroke-width="1.81125" stroke-linecap="round"></line>
                <line x1="81.544315" y1="295.906486" x2="83.8704889" y2="303.599084" id="Stroke-40-Copy" stroke="#EA9975" stroke-width="1.81125" stroke-linecap="round"></line>
                <line x1="90.6010655" y1="213.763567" x2="91.6941742" y2="221.726318" id="Stroke-42" stroke="#EA9975" stroke-width="1.81125" stroke-linecap="round"></line>
                <line x1="92.1200312" y1="316.273022" x2="93.2131399" y2="324.235773" id="Stroke-42-Copy-3" stroke="#EA9975" stroke-width="1.81125" stroke-linecap="round" transform="translate(92.666586, 320.254397) rotate(-18.000000) translate(-92.666586, -320.254397) "></line>
                <line x1="68.6294824" y1="305.158306" x2="68.3818947" y2="313.126801" id="Stroke-42-Copy-2" stroke="#EA9975" stroke-width="1.81125" stroke-linecap="round"></line>
                <line x1="89.5595045" y1="279.688275" x2="90.6526132" y2="287.651026" id="Stroke-42-Copy" stroke="#EA9975" stroke-width="1.81125" stroke-linecap="round"></line>
                <line x1="70.5672245" y1="174.181387" x2="68.8621076" y2="182.035775" id="Stroke-44" stroke="#EA9975" stroke-width="1.81125" stroke-linecap="round"></line>
                <line x1="41.6944102" y1="297.81922" x2="39.9892933" y2="305.673608" id="Stroke-44-Copy" stroke="#EA9975" stroke-width="1.81125" stroke-linecap="round"></line>
                <line x1="64.2516864" y1="215.355362" x2="62.5465696" y2="223.20975" id="Stroke-46" stroke="#EA9975" stroke-width="1.81125" stroke-linecap="round"></line>
                <line x1="51.9103264" y1="263.176153" x2="50.2052095" y2="271.030239" id="Stroke-48" stroke="#EA9975" stroke-width="1.81125" stroke-linecap="round"></line>
                <line x1="56.3036993" y1="285.507876" x2="54.5985825" y2="293.361962" id="Stroke-48-Copy" stroke="#EA9975" stroke-width="1.81125" stroke-linecap="round"></line>
                <line x1="68.7293299" y1="243.164563" x2="69.541319" y2="251.160819" id="Stroke-50" stroke="#EA9975" stroke-width="1.81125" stroke-linecap="round"></line>
                <line x1="51.197634" y1="156.338152" x2="46.7084682" y2="163.002655" id="Stroke-52" stroke="#EA9975" stroke-width="1.81125" stroke-linecap="round"></line>
                <line x1="40.5362951" y1="145.041248" x2="36.0471293" y2="151.706053" id="Stroke-54" stroke="#EA9975" stroke-width="1.81125" stroke-linecap="round"></line>
                <line x1="53.5559014" y1="194.892479" x2="50.4693171" y2="202.312508" id="Stroke-56" stroke="#EA9975" stroke-width="1.81125" stroke-linecap="round"></line>
                <line x1="48.0945807" y1="220.153961" x2="44.373366" y2="227.27667" id="Stroke-58" stroke="#EA9975" stroke-width="1.81125" stroke-linecap="round"></line>
                <line x1="54.766103" y1="174.491777" x2="50.2769372" y2="181.156582" id="Stroke-60" stroke="#EA9975" stroke-width="1.81125" stroke-linecap="round"></line>
                <line x1="51.0285701" y1="240.925484" x2="46.5394043" y2="247.589987" id="Stroke-62" stroke="#EA9975" stroke-width="1.81125" stroke-linecap="round"></line>
                <line x1="34.3276851" y1="245.748865" x2="29.8385193" y2="252.413368" id="Stroke-64" stroke="#EA9975" stroke-width="1.81125" stroke-linecap="round"></line>
                <line x1="38.5804027" y1="175.629895" x2="31.8446935" y2="180.007295" id="Stroke-66" stroke="#EA9975" stroke-width="1.81125" stroke-linecap="round"></line>
                <line x1="82.6598299" y1="159.41175" x2="86.4341315" y2="166.506387" id="Stroke-68" stroke="#EA9975" stroke-width="1.81125" stroke-linecap="round"></line>
                <line x1="84.7071766" y1="185.828465" x2="88.4814783" y2="192.923102" id="Stroke-70" stroke="#EA9975" stroke-width="1.81125" stroke-linecap="round"></line>
                <line x1="49.3791744" y1="320.254037" x2="53.1534761" y2="327.348674" id="Stroke-70-Copy" stroke="#EA9975" stroke-width="1.81125" stroke-linecap="round" transform="translate(51.266325, 323.801356) rotate(49.000000) translate(-51.266325, -323.801356) "></line>
                <line x1="84.1494318" y1="253.257335" x2="87.9237334" y2="260.351972" id="Stroke-72" stroke="#EA9975" stroke-width="1.81125" stroke-linecap="round"></line>
            </g>
        </g>
    </g>
</svg>