<?xml version="1.0" encoding="UTF-8"?>
<svg width="165px" height="452px" viewBox="0 0 165 452" version="1.1" xmlns="http://www.w3.org/2000/svg" xmlns:xlink="http://www.w3.org/1999/xlink">
    <title>male hand</title>
    <defs>
        <polygon id="path-1" points="0 0.151791908 40.1530056 0.151791908 40.1530056 85.4880619 0 85.4880619"></polygon>
        <polygon id="path-3" points="0.146230435 0.144283368 24.5318446 0.144283368 24.5318446 67.9554187 0.146230435 67.9554187"></polygon>
        <polygon id="path-5" points="0.146320924 0.144283368 14.7087367 0.144283368 14.7087367 56.4243218 0.146320924 56.4243218"></polygon>
    </defs>
    <g id="Game-UI" stroke="none" stroke-width="1" fill="none" fill-rule="evenodd">
        <g id="Round-1_1" transform="translate(-200.000000, -294.000000)">
            <g id="male-hand" transform="translate(282.373017, 520.301914) rotate(-7.000000) translate(-282.373017, -520.301914) translate(227.001693, 299.952853)">
                <g id="Group-3" transform="translate(0.000000, 26.864476)">
                    <mask id="mask-2" fill="white">
                        <use xlink:href="#path-1"></use>
                    </mask>
                    <g id="Clip-2"></g>
                    <path d="M12.2724375,78.9520097 L12.7185489,79.6239234 C17.9678234,86.2962745 27.6290462,87.4457119 34.2953804,82.1899337 C40.9617147,76.9365702 42.1070054,67.2686791 36.8595408,60.5984409 L23.4855489,43.6043957 L33.8124701,22.221178 C37.5059348,14.577178 34.3044293,5.3825846 26.6641304,1.68736078 C19.0229266,-2.00756119 9.83647011,1.19414107 6.14572011,8.83965031 L6.14572011,8.83995216 C-3.85091576,31.7339193 -1.5431413,58.1416996 12.2724375,78.9520097" id="Fill-1" fill="#EA9975" mask="url(#mask-2)"></path>
                </g>
                <path d="M56.8726598,134.448132 C85.3477793,135.28908 109.113543,112.872637 109.953885,84.3733515 L110.719725,69.3491667 C111.556749,40.8501832 89.1576734,17.0696883 60.6789342,16.2308526 C32.2038147,15.3899039 8.43925761,37.8063474 7.59891522,66.3056329 L6.83518696,81.3277047 C5.99484457,109.828801 28.3984451,133.609598 56.8726598,134.448132" id="Fill-4" fill="#FBC399"></path>
                <path d="M33.9586101,119.641066 L17.972197,409.945843 C17.972197,426.928719 47.7159742,440.698122 64.6875122,440.698122 C81.6590503,440.698122 103.560436,426.928719 103.560436,409.945843 L95.4164144,119.641066 C95.4164144,102.656077 81.6590503,88.8887871 64.6875122,88.8887871 C47.7159742,88.8887871 33.9586101,102.656077 33.9586101,119.641066" id="Fill-6" fill="#FBC399"></path>
                <path d="M18.9850418,57.1358211 L18.2213136,72.1575912 C17.7022076,89.7812914 26.0760717,105.590281 39.2727049,115.294092 C43.0602783,118.078942 45.1469576,122.621755 44.8806179,127.317907 L29.3584141,400.77594 C29.3584141,417.758515 67.246213,431.525805 84.2177511,431.525805 C88.8688924,431.525805 93.2612348,430.4633 97.2125935,428.612367 C91.5953299,435.947577 74.6352538,440.698061 64.6874821,440.698061 C47.715944,440.698061 17.9721668,426.928659 17.9721668,409.945782 L33.6647918,133.486172 C33.838531,130.422415 32.3584304,127.513807 29.8072402,125.811082 C15.5081478,116.266345 6.29152826,99.7917801 6.8350663,81.3277349 L7.59879457,66.305663 C8.13901467,47.9656774 18.1802918,32.1578951 32.853406,23.4335809 C24.583906,32.2879916 19.3699223,44.0676117 18.9850418,57.1358211" id="Fill-8" fill="#EA9975"></path>
                <path d="M22.4729454,58.1504532 C22.4729454,64.84333 27.8857035,70.2771986 34.5785813,70.2953448 C41.2814128,70.3113074 46.7297633,64.888909 46.7478611,58.1800343 L46.8576546,16.9460815 L46.8576546,16.9143875 C46.8576546,10.2212088 41.4445948,4.78522731 34.7520188,4.76888228 C28.0500921,4.75081663 22.6008367,10.1735168 22.5827389,16.8820897 L22.4729454,58.1160425 L22.4729454,58.1504532 Z" id="Fill-10" fill="#FBC399"></path>
                <path d="M27.7374823,16.8821501 C27.7374823,16.8821501 22.4728247,64.8433903 22.4728247,58.1505136 L22.4728247,58.115801 L22.5826182,16.8821501 C22.6010177,10.1732754 28.0502731,4.750877 34.7521997,4.76894265 C35.6278329,4.77140267 36.4805421,4.86980513 37.3024851,5.04789548 C31.8487052,6.22932875 27.7534688,11.0688585 27.7374823,16.8821501" id="Fill-12" fill="#EA9975"></path>
                <g id="Group-16" transform="translate(43.133152, -0.000000)">
                    <mask id="mask-4" fill="white">
                        <use xlink:href="#path-3"></use>
                    </mask>
                    <g id="Clip-15"></g>
                    <path d="M0.146230435,55.8105271 C0.146230435,62.5034039 5.56019511,67.9372725 12.2542793,67.9554187 C18.9571109,67.9713813 24.4051598,62.5465682 24.4223527,55.8401082 L24.5318446,12.3211657 L24.5318446,12.2915846 C24.5318446,5.59659487 19.1178799,0.162424435 12.4253038,0.143976411 C5.72126576,0.128013758 0.274121739,5.5528269 0.256928804,12.2595887 L0.146230435,55.7785312 L0.146230435,55.8105271 Z" id="Fill-14" fill="#FBC399" mask="url(#mask-4)"></path>
                </g>
                <g id="Group-19" transform="translate(43.133152, -0.000000)">
                    <mask id="mask-6" fill="white">
                        <use xlink:href="#path-5"></use>
                    </mask>
                    <g id="Clip-18"></g>
                    <path d="M4.90031821,12.2595283 C4.90031821,12.2595283 0.146320924,62.5033435 0.146320924,55.8104667 L0.146320924,55.7784708 L0.257019293,12.2595283 C0.274212228,5.55276653 5.72135625,0.128255236 12.4253943,0.143917357 C13.2063155,0.146366119 13.9688372,0.228770637 14.7087367,0.372752156 C9.13249484,1.45819774 4.9150981,6.35960637 4.90031821,12.2595283" id="Fill-17" fill="#EA9975" mask="url(#mask-6)"></path>
                </g>
                <path d="M65.315356,13.790562 L65.315356,13.8222561 L65.4272609,57.0100713 C65.4456603,63.718946 70.8937092,69.1413444 77.5968424,69.1253817 C84.2894185,69.1072355 89.7021766,63.6709522 89.7021766,56.9804901 L89.7021766,56.9460795 L89.5902717,13.7606791 C89.5721739,7.05180431 84.1238234,1.62729302 77.4209918,1.64535868 C70.7281141,1.66351478 65.315356,7.09768522 65.315356,13.790562" id="Fill-20" fill="#FBC399"></path>
                <path d="M69.7395204,13.790562 L69.7395204,13.8222561 C69.7395204,13.8222561 65.4458111,63.718946 65.4274117,57.0100713 L65.3155068,13.8222561 L65.3155068,13.790562 C65.3155068,7.09768522 70.7282649,1.66351478 77.420841,1.64536183 C78.1906019,1.64329097 78.9404552,1.72086591 79.6713057,1.85579199 C74.0199579,2.89535667 69.7395204,7.8426462 69.7395204,13.790562" id="Fill-22" fill="#EA9975"></path>
                <path d="M86.3558283,20.1087548 L86.3558283,20.1404489 L86.4677332,63.3261511 C86.4861326,70.034724 91.9341815,75.4595372 98.6373147,75.4411712 C105.329891,75.4230136 110.742649,69.989145 110.742649,63.2962682 L110.742649,63.2642723 L110.630744,20.0767589 C110.612646,13.3678842 105.164296,7.94548583 98.4614641,7.96144847 C91.7685864,7.97959466 86.3558283,13.4155762 86.3558283,20.1087548" id="Fill-24" fill="#FBC399"></path>
                <path d="M90.7788163,20.1087548 L90.7788163,20.1404489 C90.7788163,20.1404489 86.486012,70.034724 86.4679141,63.3261511 L86.3557076,20.1404489 L86.3557076,20.1087548 C86.3557076,13.4155762 91.7687674,7.97959466 98.4613435,7.96142924 C99.2308027,7.95906899 99.9809576,8.03694579 100.711808,8.1739848 C95.0601587,9.21354949 90.7788163,14.1584242 90.7788163,20.1087548" id="Fill-26" fill="#EA9975"></path>
                <line x1="75.483891" y1="135.73334" x2="79.8762334" y2="142.462439" id="Stroke-28" stroke="#EA9975" stroke-width="1.81125" stroke-linecap="round"></line>
                <line x1="54.7173595" y1="125.299268" x2="53.2897427" y2="133.208593" id="Stroke-30" stroke="#EA9975" stroke-width="1.81125" stroke-linecap="round"></line>
                <line x1="63.2005647" y1="146.647623" x2="64.2936734" y2="154.610072" id="Stroke-32" stroke="#EA9975" stroke-width="1.81125" stroke-linecap="round"></line>
                <line x1="85.4899679" y1="123.758183" x2="86.5830766" y2="131.720935" id="Stroke-34" stroke="#EA9975" stroke-width="1.81125" stroke-linecap="round"></line>
                <line x1="76.6658299" y1="199.968024" x2="77.7589386" y2="207.930474" id="Stroke-36" stroke="#EA9975" stroke-width="1.81125" stroke-linecap="round"></line>
                <line x1="79.8614791" y1="325.693507" x2="80.9545878" y2="333.655956" id="Stroke-36-Copy" stroke="#EA9975" stroke-width="1.81125" stroke-linecap="round"></line>
                <line x1="70.6136152" y1="271.976472" x2="71.7067239" y2="279.939224" id="Stroke-38" stroke="#EA9975" stroke-width="1.81125" stroke-linecap="round"></line>
                <line x1="79.719838" y1="227.451229" x2="82.046012" y2="235.143826" id="Stroke-40" stroke="#EA9975" stroke-width="1.81125" stroke-linecap="round"></line>
                <line x1="81.544315" y1="295.749525" x2="83.8704889" y2="303.442123" id="Stroke-40-Copy" stroke="#EA9975" stroke-width="1.81125" stroke-linecap="round"></line>
                <line x1="90.6010655" y1="213.606606" x2="91.6941742" y2="221.569357" id="Stroke-42" stroke="#EA9975" stroke-width="1.81125" stroke-linecap="round"></line>
                <line x1="92.1200312" y1="316.116061" x2="93.2131399" y2="324.078812" id="Stroke-42-Copy-3" stroke="#EA9975" stroke-width="1.81125" stroke-linecap="round" transform="translate(92.666586, 320.097436) rotate(-18.000000) translate(-92.666586, -320.097436) "></line>
                <line x1="68.6294824" y1="305.001345" x2="68.3818947" y2="312.96984" id="Stroke-42-Copy-2" stroke="#EA9975" stroke-width="1.81125" stroke-linecap="round"></line>
                <line x1="89.5595045" y1="279.531314" x2="90.6526132" y2="287.494065" id="Stroke-42-Copy" stroke="#EA9975" stroke-width="1.81125" stroke-linecap="round"></line>
                <line x1="70.5672245" y1="174.024426" x2="68.8621076" y2="181.878814" id="Stroke-44" stroke="#EA9975" stroke-width="1.81125" stroke-linecap="round"></line>
                <line x1="41.6944102" y1="297.662259" x2="39.9892933" y2="305.516647" id="Stroke-44-Copy" stroke="#EA9975" stroke-width="1.81125" stroke-linecap="round"></line>
                <line x1="64.2516864" y1="215.198401" x2="62.5465696" y2="223.052789" id="Stroke-46" stroke="#EA9975" stroke-width="1.81125" stroke-linecap="round"></line>
                <line x1="51.9103264" y1="263.019192" x2="50.2052095" y2="270.873278" id="Stroke-48" stroke="#EA9975" stroke-width="1.81125" stroke-linecap="round"></line>
                <line x1="56.3036993" y1="285.350915" x2="54.5985825" y2="293.205001" id="Stroke-48-Copy" stroke="#EA9975" stroke-width="1.81125" stroke-linecap="round"></line>
                <line x1="68.7293299" y1="243.007602" x2="69.541319" y2="251.003858" id="Stroke-50" stroke="#EA9975" stroke-width="1.81125" stroke-linecap="round"></line>
                <line x1="51.197634" y1="156.181191" x2="46.7084682" y2="162.845694" id="Stroke-52" stroke="#EA9975" stroke-width="1.81125" stroke-linecap="round"></line>
                <line x1="40.5362951" y1="144.884287" x2="36.0471293" y2="151.549092" id="Stroke-54" stroke="#EA9975" stroke-width="1.81125" stroke-linecap="round"></line>
                <line x1="53.5559014" y1="194.735518" x2="50.4693171" y2="202.155547" id="Stroke-56" stroke="#EA9975" stroke-width="1.81125" stroke-linecap="round"></line>
                <line x1="48.0945807" y1="219.997" x2="44.373366" y2="227.119709" id="Stroke-58" stroke="#EA9975" stroke-width="1.81125" stroke-linecap="round"></line>
                <line x1="54.766103" y1="174.334816" x2="50.2769372" y2="180.999621" id="Stroke-60" stroke="#EA9975" stroke-width="1.81125" stroke-linecap="round"></line>
                <line x1="51.0285701" y1="240.768523" x2="46.5394043" y2="247.433026" id="Stroke-62" stroke="#EA9975" stroke-width="1.81125" stroke-linecap="round"></line>
                <line x1="34.3276851" y1="245.591904" x2="29.8385193" y2="252.256407" id="Stroke-64" stroke="#EA9975" stroke-width="1.81125" stroke-linecap="round"></line>
                <line x1="38.5804027" y1="175.472934" x2="31.8446935" y2="179.850334" id="Stroke-66" stroke="#EA9975" stroke-width="1.81125" stroke-linecap="round"></line>
                <line x1="82.6598299" y1="159.254789" x2="86.4341315" y2="166.349426" id="Stroke-68" stroke="#EA9975" stroke-width="1.81125" stroke-linecap="round"></line>
                <line x1="84.7071766" y1="185.671504" x2="88.4814783" y2="192.766141" id="Stroke-70" stroke="#EA9975" stroke-width="1.81125" stroke-linecap="round"></line>
                <line x1="49.3791744" y1="320.097076" x2="53.1534761" y2="327.191713" id="Stroke-70-Copy" stroke="#EA9975" stroke-width="1.81125" stroke-linecap="round" transform="translate(51.266325, 323.644395) rotate(49.000000) translate(-51.266325, -323.644395) "></line>
                <line x1="84.1494318" y1="253.100374" x2="87.9237334" y2="260.195011" id="Stroke-72" stroke="#EA9975" stroke-width="1.81125" stroke-linecap="round"></line>
            </g>
        </g>
    </g>
</svg>