<?xml version="1.0" encoding="UTF-8"?>
<svg width="156px" height="445px" viewBox="0 0 156 445" version="1.1" xmlns="http://www.w3.org/2000/svg" xmlns:xlink="http://www.w3.org/1999/xlink">
    <title>male hand</title>
    <g id="Game-UI" stroke="none" stroke-width="1" fill="none" fill-rule="evenodd">
        <g id="Round-1" transform="translate(-188.000000, -285.000000)">
            <g id="male-hand" transform="translate(188.000000, 285.000000)">
                <path d="M84.5109158,438.317615 C76.0704947,430.783544 22.6547053,430.238498 27.8532316,419.561023 C79.3638632,313.770005 84.9640737,106.927062 76.7488105,80.0721007 C72.5592316,66.3771468 77.4571263,51.6615333 90.6726,46.1312248 C103.891232,40.5987071 118.968916,43.5776823 125.794389,56.1683418 C138.623337,79.831927 187.039232,303.256643 125.164705,430.328445 C118.890916,443.211352 103.352495,448.573445 90.4594421,442.301154 C88.2504947,441.227473 86.2594421,439.878587 84.5109158,438.317615" id="Fill-1" fill="#FBC399"></path>
                <path d="M104.544726,440.117529 C102.334516,439.041639 100.343463,437.692437 98.5968316,436.133359 C90.1548316,428.59771 37.1922,428.261593 41.9372526,417.375189 C107.723463,266.460856 91.4691474,79.4084195 90.8322,77.8872138 C85.4306211,64.9557032 91.2998842,50.1476181 103.939042,44.3357918 C99.5789368,43.7841181 95.0208316,44.3108592 90.6724105,46.1312564 C77.4572526,51.6615649 71.2276737,66.8572103 76.7486211,80.0721323 C77.3858842,81.594916 96.9503053,220.100693 27.8533579,419.561054 C23.9659895,430.782313 76.0706211,430.783576 84.5110421,438.317646 C86.2595684,439.878618 88.2503053,441.227505 90.4592526,442.301185 C97.7517789,445.847299 105.887147,445.669615 112.716411,442.51832 C109.949779,442.176207 107.190411,441.404242 104.544726,440.117529" id="Fill-3" fill="#EA9975"></path>
                <path d="M24.4436842,69.0391936 C20.3317895,65.368417 18.8731579,59.3220979 21.2602105,54.0319631 L31.6733684,30.950034 C33.7714737,26.298995 38.4022105,23.309605 43.5066316,23.3064489 L84.4784211,23.3058177 C91.6446316,23.3058177 97.458,29.1154348 97.4595794,36.2755163 C97.4614737,43.4390695 91.6490526,49.2512113 84.4796842,49.2496333 L51.8943158,49.2534206 L44.9292632,64.6964986 C41.9826316,71.2282149 34.2950526,74.1342858 27.7607368,71.191605 C26.5187368,70.6326723 25.4074737,69.899527 24.4436842,69.0391936" id="Fill-5" fill="#EA9975"></path>
                <path d="M69.5402211,105.708614 C97.1203263,114.971241 140.238537,114.249142 134.806326,87.484128 C125.944011,43.8182663 103.960011,5.17080532 76.4433789,6.88515993 C76.4433789,6.88515993 60.8478,23.006784 58.6780105,40.4154365 C87.8976947,74.7713301 69.5402211,105.708614 69.5402211,105.708614" id="Fill-7" fill="#FBC399"></path>
                <path d="M83.7754105,74.0130312 C82.3398316,64.0589177 71.8240421,44.3930738 58.6777263,40.4155312 C87.8977263,74.7711092 69.5402526,105.708709 69.5402526,105.708709 C76.5204632,108.053006 86.4662526,92.7210206 83.7754105,74.0130312" id="Fill-9" fill="#EA9975"></path>
                <path d="M4.36237895,73.1219897 C1.81427368,70.8471245 0.165221053,67.5800039 0.0338526316,63.9003904 C-0.128778947,59.2701812 -0.748042105,18.2926245 27.2899579,5.27179823 C53.5835368,-6.93635071 83.6448,7.17204291 84.9114316,7.77831596 C91.3775368,10.8769046 94.1091158,18.6233762 91.0090105,25.0856599 C87.9174316,31.5343727 80.1888,34.2655996 73.7318526,31.1966777 C68.0943789,28.5569755 50.7474316,22.9897415 38.2266947,28.8021989 C28.3273263,33.4002167 25.6715368,54.2044401 25.9822737,62.9870358 C26.2349053,70.1477486 20.6293263,76.158089 13.4665895,76.4077309 C9.98185263,76.532394 6.76995789,75.271245 4.36237895,73.1219897" id="Fill-11" fill="#FBC399"></path>
                <path d="M12.6604737,72.0965961 C10.1133158,69.8226777 8.46236842,66.5555571 8.33415789,62.87405 C8.17026316,58.2457344 7.55005263,17.2672309 35.589,4.24735142 C39.5148947,2.42190461 43.5260526,1.19768121 47.5122632,0.416248582 C40.8822632,0.773826596 33.9674211,2.17100035 27.2900526,5.27179823 C-0.747947368,18.2926245 -0.128684211,59.2701812 0.0339473684,63.9003904 C0.165315789,67.5800039 1.81405263,70.8471245 4.36247368,73.1219897 C6.77005263,75.271245 9.98194737,76.532394 13.4666842,76.4077309 C15.3462632,76.3417699 17.1042632,75.8617379 18.6911053,75.0872486 C16.4161579,74.620472 14.3366842,73.5928691 12.6604737,72.0965961" id="Fill-13" fill="#EA9975"></path>
                <path d="M82.0305474,30.1722624 C77.0259158,27.8285957 62.7936,23.1955461 50.9012842,26.251844 C60.4633895,26.1918794 69.8600211,29.3851489 73.7319158,31.1967092 C77.4317053,32.9527234 81.5417053,32.7999716 84.9639158,31.1462128 C83.9729684,30.9382305 82.9877053,30.6264149 82.0305474,30.1722624" id="Fill-15" fill="#EA9975"></path>
                <path d="M83.6992421,15.2372418 C73.2557684,12.833295 38.0768211,6.92836596 22.0122947,15.5512667 C13.3220842,20.4882418 6.98955789,28.0219972 3.18303158,37.3912986 C-0.241073684,49.9756461 -0.0481263158,61.5652135 0.0339789474,63.9003589 C0.165347368,67.5802879 1.81408421,70.8470929 4.36250526,73.1219582 C6.77008421,75.2712135 9.98197895,76.5323624 13.4667158,76.4076993 C19.1209263,76.2110787 23.7513474,72.4020681 25.3501895,67.2990858 C24.3241895,58.9188837 25.1534526,51.8225539 27.7353474,46.5153766 C29.5018737,38.8377064 32.7557684,31.3424546 38.2268211,28.8021674 C50.7472421,22.9897099 68.0945053,28.556944 73.7319789,31.1966461 C80.1889263,34.2655681 87.9172421,31.5343411 91.0088211,25.0856284 C91.7291368,23.5798872 92.1241895,22.0069227 92.2404,20.4367986 C90.1599789,17.7898376 87.1830316,15.8447773 83.6992421,15.2372418" id="Fill-17" fill="#EA9975"></path>
                <path d="M8.96598947,93.0160777 C7.01188421,91.2717408 5.56525263,88.9242869 4.95104211,86.1741238 C-1.46106316,57.457106 6.41188421,33.6395067 26.0116737,22.4611699 C41.9015684,13.3961096 74.9855684,16.2065528 84.7472526,17.2837053 C91.8755684,18.0689252 97.0140947,24.4822904 96.2268316,31.6007124 C95.4386211,38.7229216 89.0255684,43.8590422 81.9004105,43.0731911 C65.8305158,41.3162301 44.7120947,41.6678117 38.8788316,44.995528 C29.5655684,50.307755 26.4345158,63.255677 30.2890421,80.5219926 C31.8503053,87.512911 27.4437789,94.4482833 20.4474632,96.007677 C16.2026211,96.9548011 11.9795684,95.7062762 8.96598947,93.0160777" id="Fill-19" fill="#FBC399"></path>
                <path d="M22.7244316,114.445321 C18.8127474,110.953491 17.2612737,105.278952 19.2602211,100.09991 C21.8345368,93.4239628 29.3291684,90.0959309 36.0096947,92.6488422 C41.2751684,94.6434521 57.3924316,99.0713599 68.6136947,95.6177181 C79.5709579,92.246133 84.2923263,77.5620798 84.3362211,77.4134309 C86.3392737,70.5361294 93.5443263,66.5787855 100.428221,68.5828635 C107.307063,70.5913599 111.266116,77.7855266 109.265905,84.6653528 C108.931168,85.8122535 100.7958,112.863204 76.2510632,120.415264 C54.4492737,127.12498 29.4788526,117.939044 26.7024316,116.869782 C25.1967474,116.290966 23.8609579,115.459668 22.7244316,114.445321" id="Fill-21" fill="#FBC399"></path>
                <path d="M18.6641684,106.926935 C18.6641684,106.926935 18.8129053,110.953396 22.7242737,114.445226 C23.8608,115.459574 25.1969053,116.290872 26.7022737,116.869687 C29.4786947,117.939265 54.4491158,127.124886 76.2509053,120.41517 C79.6942737,119.357584 82.8013263,117.904549 85.6235368,116.204081 C64.1129053,122.22673 26.4474316,116.993719 18.6641684,106.926935" id="Fill-23" fill="#EA9975"></path>
                <line x1="134.188863" y1="125.162878" x2="138.787389" y2="132.198296" id="Stroke-25" stroke="#EA9975" stroke-width="1.89525" stroke-linecap="round"></line>
                <line x1="112.447484" y1="114.252993" x2="110.953168" y2="122.522734" id="Stroke-27" stroke="#EA9975" stroke-width="1.89525" stroke-linecap="round"></line>
                <line x1="121.328747" y1="136.574193" x2="122.473168" y2="144.89948" id="Stroke-29" stroke="#EA9975" stroke-width="1.89525" stroke-linecap="round"></line>
                <line x1="135.426095" y1="192.324329" x2="136.570516" y2="200.649932" id="Stroke-31" stroke="#EA9975" stroke-width="1.89525" stroke-linecap="round"></line>
                <line x1="113.195021" y1="342.658521" x2="111.802074" y2="350.945936" id="Stroke-33" stroke="#EA9975" stroke-width="1.89525" stroke-linecap="round"></line>
                <line x1="151.160084" y1="234.305661" x2="152.304505" y2="242.631263" id="Stroke-35" stroke="#EA9975" stroke-width="1.89525" stroke-linecap="round"></line>
                <line x1="128.517916" y1="330.264956" x2="129.662337" y2="338.590243" id="Stroke-37" stroke="#EA9975" stroke-width="1.89525" stroke-linecap="round"></line>
                <line x1="138.623463" y1="221.059904" x2="141.059147" y2="229.103358" id="Stroke-39" stroke="#EA9975" stroke-width="1.89525" stroke-linecap="round"></line>
                <line x1="128.869453" y1="262.439002" x2="131.305137" y2="270.482141" id="Stroke-41" stroke="#EA9975" stroke-width="1.89525" stroke-linecap="round"></line>
                <line x1="142.627263" y1="346.943209" x2="145.062947" y2="354.986662" id="Stroke-43" stroke="#EA9975" stroke-width="1.89525" stroke-linecap="round"></line>
                <line x1="143.845105" y1="277.875516" x2="146.280474" y2="285.91897" id="Stroke-45" stroke="#EA9975" stroke-width="1.89525" stroke-linecap="round"></line>
                <line x1="150.015632" y1="206.584717" x2="151.160053" y2="214.910004" id="Stroke-47" stroke="#EA9975" stroke-width="1.89525" stroke-linecap="round"></line>
                <line x1="129.041558" y1="165.198833" x2="127.2564" y2="173.410819" id="Stroke-49" stroke="#EA9975" stroke-width="1.89525" stroke-linecap="round"></line>
                <line x1="122.4294" y1="208.249017" x2="120.644242" y2="216.461003" id="Stroke-51" stroke="#EA9975" stroke-width="1.89525" stroke-linecap="round"></line>
                <line x1="114.283642" y1="314.186759" x2="112.498484" y2="322.39906" id="Stroke-53" stroke="#EA9975" stroke-width="1.89525" stroke-linecap="round"></line>
                <line x1="83.5993263" y1="338.590211" x2="81.8144842" y2="346.802513" id="Stroke-55" stroke="#EA9975" stroke-width="1.89525" stroke-linecap="round"></line>
                <line x1="113.391158" y1="286.665528" x2="111.606" y2="294.87783" id="Stroke-57" stroke="#EA9975" stroke-width="1.89525" stroke-linecap="round"></line>
                <line x1="109.508842" y1="258.248649" x2="107.723684" y2="266.46095" id="Stroke-59" stroke="#EA9975" stroke-width="1.89525" stroke-linecap="round"></line>
                <line x1="94.1489684" y1="296.54415" x2="89.9053895" y2="303.798912" id="Stroke-61" stroke="#EA9975" stroke-width="1.89525" stroke-linecap="round"></line>
                <line x1="127.1172" y1="237.325475" x2="127.967305" y2="245.685794" id="Stroke-63" stroke="#EA9975" stroke-width="1.89525" stroke-linecap="round"></line>
                <line x1="129.237063" y1="294.341084" x2="130.087168" y2="302.701403" id="Stroke-65" stroke="#EA9975" stroke-width="1.89525" stroke-linecap="round"></line>
                <line x1="108.762568" y1="146.542508" x2="104.062674" y2="153.510703" id="Stroke-67" stroke="#EA9975" stroke-width="1.89525" stroke-linecap="round"></line>
                <line x1="97.6007684" y1="134.73082" x2="92.9008737" y2="141.699015" id="Stroke-69" stroke="#EA9975" stroke-width="1.89525" stroke-linecap="round"></line>
                <line x1="114.701495" y1="186.853354" x2="111.470021" y2="194.611503" id="Stroke-71" stroke="#EA9975" stroke-width="1.89525" stroke-linecap="round"></line>
                <line x1="98.1860842" y1="320.160426" x2="94.9546105" y2="327.918575" id="Stroke-73" stroke="#EA9975" stroke-width="1.89525" stroke-linecap="round"></line>
                <line x1="102.602211" y1="213.878709" x2="96.9505263" y2="220.100819" id="Stroke-75" stroke="#EA9975" stroke-width="1.89525" stroke-linecap="round"></line>
                <line x1="112.498358" y1="165.523368" x2="107.798463" y2="172.491563" id="Stroke-77" stroke="#EA9975" stroke-width="1.89525" stroke-linecap="round"></line>
                <line x1="108.585537" y1="234.984333" x2="103.885642" y2="241.952528" id="Stroke-79" stroke="#EA9975" stroke-width="1.89525" stroke-linecap="round"></line>
                <line x1="94.3768737" y1="268.293088" x2="89.6769789" y2="275.261283" id="Stroke-81" stroke="#EA9975" stroke-width="1.89525" stroke-linecap="round"></line>
                <line x1="98.9200421" y1="189.960085" x2="94.2201474" y2="196.92828" id="Stroke-83" stroke="#EA9975" stroke-width="1.89525" stroke-linecap="round"></line>
                <line x1="91.1008737" y1="240.027509" x2="86.4006632" y2="246.995704" id="Stroke-85" stroke="#EA9975" stroke-width="1.89525" stroke-linecap="round"></line>
                <line x1="95.5530632" y1="166.713033" x2="88.5011684" y2="171.290221" id="Stroke-87" stroke="#EA9975" stroke-width="1.89525" stroke-linecap="round"></line>
                <line x1="136.964653" y1="147.862549" x2="140.916126" y2="155.280478" id="Stroke-89" stroke="#EA9975" stroke-width="1.89525" stroke-linecap="round"></line>
                <line x1="143.845105" y1="177.376653" x2="147.796579" y2="184.794582" id="Stroke-91" stroke="#EA9975" stroke-width="1.89525" stroke-linecap="round"></line>
                <line x1="139.083284" y1="318.689969" x2="143.034758" y2="326.107898" id="Stroke-93" stroke="#EA9975" stroke-width="1.89525" stroke-linecap="round"></line>
                <line x1="145.820653" y1="254.539684" x2="149.772126" y2="261.957613" id="Stroke-95" stroke="#EA9975" stroke-width="1.89525" stroke-linecap="round"></line>
                <line x1="149.756589" y1="302.701466" x2="153.708063" y2="310.119395" id="Stroke-97" stroke="#EA9975" stroke-width="1.89525" stroke-linecap="round"></line>
                <path d="M23.3711053,101.362605 L35.1241579,104.788789 C36.4147895,105.158045 37.5734211,105.886772 38.4645789,106.889757 L38.4648947,106.889757 C41.4705789,110.271442 40.5693158,115.565048 36.6137368,117.762906 L35.8741579,118.174137" id="Stroke-99" stroke="#EA9975" stroke-width="1.89525" stroke-linecap="round"></path>
                <path d="M19.5489474,93.2820677 L18.9423158,84.6190855 C18.8750526,83.2392699 18.4162105,81.9067947 17.6194737,80.7781989 C14.9333684,76.9713975 9.41084211,76.6308621 6.27663158,80.0785074 L5.69021053,80.7229684" id="Stroke-101" stroke="#EA9975" stroke-width="1.89525" stroke-linecap="round"></path>
            </g>
        </g>
    </g>
</svg>